<svg width="26" height="26" viewBox="0 0 26 26" fill="none" xmlns="http://www.w3.org/2000/svg">
<path d="M13 1.625C9.99443 1.66126 7.12217 2.87134 4.99675 4.99675C2.87134 7.12217 1.66126 9.99443 1.625 13C1.66126 16.0056 2.87134 18.8778 4.99675 21.0032C7.12217 23.1287 9.99443 24.3387 13 24.375C16.0056 24.3387 18.8778 23.1287 21.0032 21.0032C23.1287 18.8778 24.3387 16.0056 24.375 13C24.3387 9.99443 23.1287 7.12217 21.0032 4.99675C18.8778 2.87134 16.0056 1.66126 13 1.625V1.625ZM19.5 13.8125H13.8125V19.5H12.1875V13.8125H6.5V12.1875H12.1875V6.5H13.8125V12.1875H19.5V13.8125Z" fill="#3E2E2D"/>
</svg>
