<svg width="21" height="21" viewBox="0 0 21 21" fill="none" xmlns="http://www.w3.org/2000/svg">
<path d="M10.5 2.625C6.16875 2.625 2.625 6.16875 2.625 10.5C2.625 14.8312 6.16875 18.375 10.5 18.375C14.8312 18.375 18.375 14.8312 18.375 10.5C18.375 6.16875 14.8312 2.625 10.5 2.625ZM10.5 4.375C11.8562 4.375 13.125 4.85625 14.175 5.6L5.6 14.175C4.85625 13.125 4.375 11.8562 4.375 10.5C4.375 7.13125 7.13125 4.375 10.5 4.375ZM10.5 16.625C9.14375 16.625 7.875 16.1438 6.825 15.4L15.4 6.825C16.1438 7.875 16.625 9.14375 16.625 10.5C16.625 13.8687 13.8687 16.625 10.5 16.625Z" fill="#D50000"/>
</svg>
