<svg width="50" height="50" viewBox="0 0 50 50" fill="none" xmlns="http://www.w3.org/2000/svg">
<rect width="50" height="50" rx="25" fill="#55423D"/>
<path d="M20.6294 37.6907L23.6237 35.3448L22.9753 22.185L19.4469 19.8772L27.648 18.485L26.1794 33.7809L30.28 36.3366L20.6294 37.6907ZM27.8578 13.8695C27.8578 14.2509 27.7815 14.6133 27.6289 14.9566C27.4763 15.2872 27.2665 15.586 26.9995 15.853C26.7325 16.1073 26.4274 16.3107 26.0841 16.4633C25.7408 16.6032 25.3784 16.6731 24.9969 16.6731C24.5901 16.6731 24.2086 16.6032 23.8526 16.4633C23.5093 16.3107 23.2105 16.1073 22.9562 15.853C22.7019 15.586 22.4985 15.2872 22.3459 14.9566C22.1933 14.6133 22.117 14.2509 22.117 13.8695C22.117 13.4753 22.1933 13.1129 22.3459 12.7823C22.4985 12.439 22.7019 12.1402 22.9562 11.8859C23.2105 11.6316 23.5093 11.4346 23.8526 11.2947C24.2086 11.1421 24.5901 11.0658 24.9969 11.0658C25.3784 11.0658 25.7408 11.1421 26.0841 11.2947C26.4274 11.4346 26.7325 11.6316 26.9995 11.8859C27.2665 12.1402 27.4763 12.439 27.6289 12.7823C27.7815 13.1129 27.8578 13.4753 27.8578 13.8695Z" fill="#FF8906"/>
</svg>
